<svg width="56" height="61" viewBox="0 0 56 61" fill="none" xmlns="http://www.w3.org/2000/svg">
<path d="M0 44.786C0.0354961 43.3305 0.0613114 41.7488 0.116169 40.1688C0.156505 39.0043 0.224271 37.8383 0.30333 36.6755C0.380776 35.5337 0.474356 34.3919 0.587299 33.2534C0.705081 32.0566 0.837384 30.8614 0.997117 29.6695C1.17137 28.3644 1.37305 27.0625 1.58119 25.7606C1.83127 24.1999 2.13783 22.6506 2.47666 21.1077C2.91229 19.1282 3.59478 17.236 4.50639 15.4311C6.99756 10.4985 10.5762 6.55886 15.273 3.65749C17.5915 2.2246 20.0795 1.19602 22.7385 0.586315C23.663 0.374454 24.5972 0.220814 25.541 0.123778C26.4704 0.0267426 27.4013 -0.0104544 28.3339 0.00248368C29.4295 0.017039 30.5202 0.112457 31.6028 0.280652C34.4312 0.715695 37.0966 1.63268 39.6104 2.99765C42.2226 4.4176 44.5266 6.2354 46.5434 8.42032C49.0927 11.1826 51.0304 14.3266 52.3373 17.8587C52.8117 19.1411 53.1699 20.456 53.4571 21.7918C53.7894 23.3363 54.0992 24.8857 54.3574 26.4431C54.5542 27.6334 54.7333 28.8285 54.9043 30.0237C55.0302 30.9019 55.1383 31.7833 55.2383 32.6647C55.3384 33.5412 55.4271 34.4194 55.5029 35.2976C55.603 36.4701 55.6965 37.6426 55.7724 38.8167C55.8369 39.8178 55.8756 40.8205 55.916 41.8232C55.9854 43.5343 56.016 45.247 55.9918 46.9596C55.9757 48.1467 55.9515 49.3338 55.8982 50.5192C55.8482 51.6529 55.7659 52.785 55.6788 53.9155C55.6143 54.7484 55.5239 55.578 55.3722 56.3996C55.1867 57.4007 54.7995 58.308 54.1057 59.0648C53.5442 59.6778 52.8585 60.0999 52.0889 60.3958C51.366 60.674 50.6125 60.8309 49.8445 60.9069C49.5106 60.9392 49.175 60.9506 48.8426 60.9797C47.9197 61.0621 47.0404 60.8891 46.1868 60.5446C45.4221 60.2357 44.6928 59.8573 43.9651 59.4724C43.118 59.0244 42.2742 58.5667 41.3949 58.1818C40.6398 57.8519 39.8653 57.5786 39.0537 57.4233C37.5936 57.1435 36.1947 57.3069 34.8797 58.0233C34.4392 58.2643 34.0165 58.5392 33.5906 58.8061C33.0936 59.1182 32.6096 59.4514 32.1062 59.7538C31.322 60.2228 30.483 60.5543 29.5844 60.7306C28.7873 60.8859 27.9838 60.9117 27.1755 60.8535C25.8395 60.7581 24.6181 60.3247 23.4887 59.6179C22.8804 59.2363 22.2867 58.8319 21.6833 58.4422C21.1185 58.0767 20.528 57.7597 19.8875 57.5478C19.1824 57.3166 18.4596 57.2276 17.719 57.2664C16.6202 57.323 15.5876 57.6352 14.5808 58.0557C13.6999 58.4244 12.8576 58.8708 12.0138 59.3171C11.2539 59.7182 10.4972 60.1241 9.70011 60.4492C9.17089 60.6659 8.63038 60.8519 8.05761 60.915C7.77202 60.9473 7.48321 60.957 7.19602 60.9554C6.37154 60.9489 5.55352 60.8891 4.74518 60.7144C4.16917 60.5899 3.61253 60.412 3.08654 60.1435C1.85225 59.5112 1.08102 58.5117 0.771233 57.1646C0.663131 56.6955 0.603433 56.2136 0.546962 55.7349C0.463062 55.0104 0.400137 54.2826 0.335599 53.5564C0.295263 53.102 0.26138 52.6459 0.237178 52.1899C0.180707 51.1047 0.116169 50.0179 0.0822863 48.9311C0.0435633 47.5904 0.0290422 46.2513 0 44.786ZM35.1943 24.8921C35.2121 25.1638 35.2379 25.6781 35.2847 26.1908C35.3621 27.0301 35.5316 27.8517 35.7962 28.6523C36.014 29.3072 36.2947 29.9331 36.7078 30.4927C36.9337 30.7984 37.1934 31.0717 37.521 31.2722C38.1292 31.6458 38.7375 31.6426 39.3442 31.2674C39.6055 31.1056 39.8234 30.8954 40.0186 30.6593C40.3429 30.2679 40.5881 29.8296 40.7882 29.3638C41.3158 28.1444 41.5465 26.8571 41.632 25.539C41.6901 24.635 41.6579 23.7325 41.5433 22.835C41.4368 21.9988 41.2577 21.1805 40.9673 20.388C40.7414 19.7735 40.4574 19.1913 40.0428 18.6786C39.8201 18.4037 39.5668 18.1611 39.2554 17.988C38.7133 17.6856 38.1679 17.6808 37.621 17.9767C37.4161 18.0867 37.237 18.2306 37.0708 18.394C36.8385 18.6236 36.6432 18.884 36.4722 19.1622C36.1608 19.67 35.9317 20.2166 35.7526 20.7843C35.3589 22.0409 35.2105 23.3363 35.1943 24.8921ZM20.8313 24.3633C20.8362 23.9153 20.7781 23.1778 20.6635 22.4452C20.5345 21.6236 20.3328 20.8199 20.0101 20.0517C19.7923 19.5309 19.5261 19.0376 19.1598 18.6058C18.9371 18.3438 18.6854 18.1158 18.3773 17.9573C18.0514 17.7891 17.7093 17.7163 17.3431 17.7826C17.0542 17.8344 16.7961 17.9589 16.5605 18.132C16.2879 18.3325 16.062 18.58 15.8635 18.8533C15.5376 19.3029 15.2972 19.7977 15.102 20.3153C14.6938 21.4005 14.4937 22.5293 14.4162 23.6824C14.3275 24.9989 14.4098 26.3072 14.6921 27.5978C14.8616 28.3757 15.1036 29.1277 15.4779 29.8328C15.6876 30.2291 15.9345 30.5994 16.2556 30.9164C16.4476 31.1056 16.6573 31.269 16.9026 31.3838C17.1833 31.5148 17.4754 31.5779 17.7868 31.5391C18.2095 31.4857 18.558 31.2835 18.8678 31.0037C19.163 30.7385 19.3954 30.4215 19.5971 30.0819C19.8955 29.5789 20.1166 29.0404 20.2876 28.4808C20.6748 27.2339 20.8281 25.9563 20.8313 24.3633Z" fill="white"/>
</svg>
